# xmcd CD database file
#
# Track frame offsets:
#	150
#	17272
#	34676
#	54219
#	67145
#	85431
#	102824
#	123656
#	139282
#	151854
#	172353
#
# Disc length: 2488 seconds
#
# Revision: 0
# Processed by: cddbd v1.5.2PL0 Copyright (c) Steve Scherf et al.
# Submitted via: CDex 1.77
#
DISCID=9209b60b
DTITLE=Norig - Ionela
DYEAR=2014
DGENRE=Jazz
TTITLE0=Cobzar
TTITLE1=Ionela
TTITLE2=Les Heroines
TTITLE3=Fleurs de Paradis
TTITLE4=Les Barques
TTITLE5=Je mange ton Coeur
TTITLE6=Mes Melodies
TTITLE7=L'Aquoiboniste
TTITLE8=Nuage en Pantalon
TTITLE9=Sollozo un Canto
TTITLE10=Berceuse
EXTD=YEAR: 2014
EXTT0=
EXTT1=
EXTT2=
EXTT3=
EXTT4=
EXTT5=
EXTT6=
EXTT7=
EXTT8=
EXTT9=
EXTT10=
PLAYORDER=
